<svg xmlns="http://www.w3.org/2000/svg" xmlns:xlink="http://www.w3.org/1999/xlink" width="500" zoomAndPan="magnify" viewBox="0 0 375 374.999991" height="500" preserveAspectRatio="xMidYMid meet" version="1.0"><defs><g/><clipPath id="3f65c4238b"><path d="M 242.519531 165.128906 L 282.269531 165.128906 L 282.269531 207 L 242.519531 207 Z M 242.519531 165.128906 " clip-rule="nonzero"/></clipPath><clipPath id="abcd90d4eb"><path d="M 253 207 L 272 207 L 272 209.378906 L 253 209.378906 Z M 253 207 " clip-rule="nonzero"/></clipPath><clipPath id="9655065420"><path d="M 296 202 L 316 202 L 316 220 L 296 220 Z M 296 202 " clip-rule="nonzero"/></clipPath><clipPath id="183004050a"><path d="M 284.652344 198.15625 L 316.660156 202.101562 L 314.273438 221.453125 L 282.265625 217.507812 Z M 284.652344 198.15625 " clip-rule="nonzero"/></clipPath><clipPath id="a8d326b838"><path d="M 284.652344 198.15625 L 316.660156 202.101562 L 314.273438 221.453125 L 282.265625 217.507812 Z M 284.652344 198.15625 " clip-rule="nonzero"/></clipPath><clipPath id="54982d1c54"><path d="M 284.652344 198.15625 L 316.660156 202.101562 L 314.273438 221.453125 L 282.265625 217.507812 Z M 284.652344 198.15625 " clip-rule="nonzero"/></clipPath><clipPath id="878c1b3ee7"><path d="M 284 203 L 297 203 L 297 219 L 284 219 Z M 284 203 " clip-rule="nonzero"/></clipPath><clipPath id="71d80b1f12"><path d="M 284.652344 198.15625 L 316.660156 202.101562 L 314.273438 221.453125 L 282.265625 217.507812 Z M 284.652344 198.15625 " clip-rule="nonzero"/></clipPath><clipPath id="08b939771a"><path d="M 284.652344 198.15625 L 316.660156 202.101562 L 314.273438 221.453125 L 282.265625 217.507812 Z M 284.652344 198.15625 " clip-rule="nonzero"/></clipPath><clipPath id="c9b6397b7e"><path d="M 284.652344 198.15625 L 316.660156 202.101562 L 314.273438 221.453125 L 282.265625 217.507812 Z M 284.652344 198.15625 " clip-rule="nonzero"/></clipPath></defs><path fill="#39b54a" d="M 258.257812 188.484375 C 260.882812 188.242188 263.511719 188.242188 266.140625 188.484375 L 266.140625 187.167969 L 258.257812 187.167969 Z M 258.257812 188.484375 " fill-opacity="1" fill-rule="nonzero"/><g clip-path="url(#3f65c4238b)"><path fill="#39b54a" d="M 270.457031 165.128906 L 270.457031 180.753906 L 254.386719 180.753906 L 254.386719 165.128906 L 242.582031 165.128906 L 242.582031 206.792969 L 254.386719 206.792969 L 254.386719 190.671875 L 252.054688 190.671875 C 251.882812 190.667969 251.738281 190.605469 251.613281 190.488281 C 251.492188 190.371094 251.425781 190.230469 251.410156 190.058594 C 251.410156 189.882812 251.472656 189.734375 251.601562 189.617188 C 251.726562 189.496094 251.878906 189.4375 252.054688 189.445312 C 253.695312 189.105469 255.378906 188.835938 257.011719 188.609375 L 257.011719 186.503906 C 257 186.328125 257.058594 186.179688 257.179688 186.058594 C 257.304688 185.933594 257.453125 185.878906 257.625 185.890625 L 266.808594 185.890625 C 266.984375 185.875 267.132812 185.929688 267.257812 186.054688 C 267.378906 186.179688 267.433594 186.328125 267.421875 186.503906 L 267.421875 188.640625 C 269.058594 188.804688 270.675781 189.070312 272.28125 189.429688 C 272.457031 189.417969 272.605469 189.472656 272.726562 189.597656 C 272.851562 189.71875 272.90625 189.867188 272.894531 190.042969 C 272.894531 190.210938 272.835938 190.355469 272.714844 190.472656 C 272.597656 190.59375 272.453125 190.652344 272.28125 190.652344 L 270.457031 190.652344 L 270.457031 206.792969 L 282.207031 206.792969 L 282.207031 165.128906 Z M 270.457031 165.128906 " fill-opacity="1" fill-rule="nonzero"/></g><g clip-path="url(#abcd90d4eb)"><path fill="#39b54a" d="M 270.214844 207.089844 C 265.21875 209 260.097656 209 254.570312 207.089844 C 254.410156 207.03125 254.25 207.039062 254.09375 207.113281 C 253.941406 207.191406 253.835938 207.308594 253.78125 207.472656 C 253.722656 207.632812 253.730469 207.792969 253.804688 207.945312 C 253.878906 208.101562 253.996094 208.207031 254.160156 208.261719 C 256.890625 209.230469 259.707031 209.722656 262.601562 209.742188 C 265.382812 209.746094 268.066406 209.246094 270.660156 208.25 C 270.820312 208.1875 270.933594 208.078125 271.003906 207.921875 C 271.074219 207.765625 271.078125 207.605469 271.015625 207.445312 C 270.953125 207.285156 270.84375 207.171875 270.6875 207.101562 C 270.53125 207.035156 270.371094 207.03125 270.214844 207.089844 Z M 270.214844 207.089844 " fill-opacity="1" fill-rule="nonzero"/></g><path fill="#39b54a" d="M 258.554688 194.910156 L 258.554688 200.6875 C 258.554688 200.855469 258.617188 201 258.734375 201.121094 C 258.855469 201.238281 259 201.300781 259.167969 201.300781 C 259.335938 201.300781 259.480469 201.238281 259.601562 201.121094 C 259.722656 201 259.78125 200.855469 259.78125 200.6875 L 259.78125 194.910156 C 259.78125 194.738281 259.722656 194.59375 259.601562 194.476562 C 259.480469 194.355469 259.335938 194.296875 259.167969 194.296875 C 259 194.296875 258.855469 194.355469 258.734375 194.476562 C 258.617188 194.59375 258.554688 194.738281 258.554688 194.910156 Z M 258.554688 194.910156 " fill-opacity="1" fill-rule="nonzero"/><path fill="#39b54a" d="M 265.558594 194.289062 C 265.390625 194.289062 265.246094 194.351562 265.128906 194.46875 C 265.007812 194.589844 264.949219 194.734375 264.949219 194.902344 L 264.949219 200.679688 C 264.949219 200.851562 265.007812 200.996094 265.128906 201.113281 C 265.246094 201.234375 265.390625 201.292969 265.558594 201.292969 C 265.730469 201.292969 265.875 201.234375 265.992188 201.113281 C 266.113281 200.996094 266.171875 200.851562 266.171875 200.679688 L 266.171875 194.910156 C 266.175781 194.738281 266.113281 194.59375 265.996094 194.472656 C 265.875 194.351562 265.730469 194.289062 265.558594 194.289062 Z M 265.558594 194.289062 " fill-opacity="1" fill-rule="nonzero"/><g clip-path="url(#9655065420)"><g clip-path="url(#183004050a)"><g clip-path="url(#a8d326b838)"><g clip-path="url(#54982d1c54)"><path fill="#39b54a" d="M 297.234375 218.253906 C 296.714844 216.484375 296.035156 213.082031 297.527344 209.722656 C 299.980469 204.214844 307.328125 200.949219 315.496094 202.496094 C 315.726562 209.617188 312.226562 215.832031 306.789062 218.125 C 303.125 219.671875 299.613281 219.003906 297.964844 218.5625 C 299.839844 217.46875 301.976562 216.03125 304.164062 214.148438 C 307.542969 211.242188 309.929688 208.238281 311.566406 205.808594 C 309.351562 208.214844 306.730469 210.785156 303.660156 213.359375 C 301.445312 215.222656 299.285156 216.84375 297.234375 218.253906 Z M 297.234375 218.253906 " fill-opacity="1" fill-rule="nonzero"/></g></g></g></g><g clip-path="url(#878c1b3ee7)"><g clip-path="url(#71d80b1f12)"><g clip-path="url(#08b939771a)"><g clip-path="url(#c9b6397b7e)"><path fill="#39b54a" d="M 295.019531 218.167969 C 293.6875 218.398438 291.148438 218.605469 288.832031 217.226562 C 285.027344 214.96875 283.277344 209.324219 285.101562 203.488281 C 290.308594 203.925781 294.535156 207.011719 295.742188 211.175781 C 296.554688 213.984375 295.769531 216.492188 295.304688 217.660156 C 294.671875 216.195312 293.804688 214.515625 292.621094 212.753906 C 290.792969 210.039062 288.808594 208.042969 287.179688 206.640625 C 288.742188 208.460938 290.390625 210.59375 292.003906 213.058594 C 293.167969 214.832031 294.164062 216.550781 295.019531 218.167969 Z M 295.019531 218.167969 " fill-opacity="1" fill-rule="nonzero"/></g></g></g></g><g fill="#000000" fill-opacity="1"><g transform="translate(77.964843, 207.802794)"><g><path d="M 15.75 -32.140625 L 15.75 -23.09375 L 33.90625 -23.09375 L 33.90625 -14.109375 L 15.75 -14.109375 L 15.75 0 L 4.109375 0 L 4.109375 -41.140625 L 36.375 -41.140625 L 36.375 -32.140625 Z M 15.75 -32.140625 "/></g></g></g><g fill="#000000" fill-opacity="1"><g transform="translate(115.687417, 207.802794)"><g><path d="M 22.09375 -10.9375 L 15.75 -10.9375 L 15.75 0 L 4.109375 0 L 4.109375 -41.140625 L 22.921875 -41.140625 C 26.640625 -41.140625 29.867188 -40.519531 32.609375 -39.28125 C 35.359375 -38.050781 37.472656 -36.289062 38.953125 -34 C 40.441406 -31.707031 41.1875 -29.015625 41.1875 -25.921875 C 41.1875 -22.941406 40.488281 -20.34375 39.09375 -18.125 C 37.707031 -15.914062 35.722656 -14.179688 33.140625 -12.921875 L 42.015625 0 L 29.5625 0 Z M 29.4375 -25.921875 C 29.4375 -27.835938 28.828125 -29.320312 27.609375 -30.375 C 26.398438 -31.4375 24.601562 -31.96875 22.21875 -31.96875 L 15.75 -31.96875 L 15.75 -19.921875 L 22.21875 -19.921875 C 24.601562 -19.921875 26.398438 -20.4375 27.609375 -21.46875 C 28.828125 -22.507812 29.4375 -23.992188 29.4375 -25.921875 Z M 29.4375 -25.921875 "/></g></g></g><g fill="#000000" fill-opacity="1"><g transform="translate(159.168257, 207.802794)"><g><path d="M 37.140625 -8.984375 L 37.140625 0 L 4.109375 0 L 4.109375 -41.140625 L 36.375 -41.140625 L 36.375 -32.140625 L 15.625 -32.140625 L 15.625 -25.203125 L 33.90625 -25.203125 L 33.90625 -16.515625 L 15.625 -16.515625 L 15.625 -8.984375 Z M 37.140625 -8.984375 "/></g></g></g><g fill="#000000" fill-opacity="1"><g transform="translate(198.653563, 207.802794)"><g><path d="M 18.5625 0.828125 C 15.238281 0.828125 12.007812 0.414062 8.875 -0.40625 C 5.738281 -1.226562 3.191406 -2.328125 1.234375 -3.703125 L 5.046875 -12.28125 C 6.890625 -11.0625 9.023438 -10.082031 11.453125 -9.34375 C 13.890625 -8.601562 16.28125 -8.234375 18.625 -8.234375 C 23.09375 -8.234375 25.328125 -9.347656 25.328125 -11.578125 C 25.328125 -12.753906 24.691406 -13.625 23.421875 -14.1875 C 22.148438 -14.757812 20.101562 -15.359375 17.28125 -15.984375 C 14.1875 -16.648438 11.597656 -17.363281 9.515625 -18.125 C 7.441406 -18.894531 5.660156 -20.117188 4.171875 -21.796875 C 2.679688 -23.484375 1.9375 -25.757812 1.9375 -28.625 C 1.9375 -31.125 2.617188 -33.382812 3.984375 -35.40625 C 5.359375 -37.425781 7.40625 -39.019531 10.125 -40.1875 C 12.851562 -41.363281 16.195312 -41.953125 20.15625 -41.953125 C 22.863281 -41.953125 25.53125 -41.648438 28.15625 -41.046875 C 30.78125 -40.441406 33.085938 -39.550781 35.078125 -38.375 L 31.5 -29.734375 C 27.582031 -31.847656 23.78125 -32.90625 20.09375 -32.90625 C 17.78125 -32.90625 16.09375 -32.5625 15.03125 -31.875 C 13.976562 -31.195312 13.453125 -30.304688 13.453125 -29.203125 C 13.453125 -28.109375 14.078125 -27.285156 15.328125 -26.734375 C 16.585938 -26.191406 18.609375 -25.625 21.390625 -25.03125 C 24.523438 -24.363281 27.117188 -23.648438 29.171875 -22.890625 C 31.234375 -22.128906 33.015625 -20.914062 34.515625 -19.25 C 36.023438 -17.582031 36.78125 -15.316406 36.78125 -12.453125 C 36.78125 -9.984375 36.09375 -7.75 34.71875 -5.75 C 33.351562 -3.757812 31.300781 -2.164062 28.5625 -0.96875 C 25.820312 0.226562 22.488281 0.828125 18.5625 0.828125 Z M 18.5625 0.828125 "/></g></g></g><g fill="#39b54a" fill-opacity="1"><g transform="translate(138.398024, 240.929763)"><g><path d="M 13.921875 0.46875 C 11.484375 0.46875 9.296875 -0.046875 7.359375 -1.078125 C 5.421875 -2.109375 3.894531 -3.539062 2.78125 -5.375 C 1.675781 -7.21875 1.125 -9.300781 1.125 -11.625 C 1.125 -13.957031 1.675781 -16.039062 2.78125 -17.875 C 3.894531 -19.71875 5.421875 -21.15625 7.359375 -22.1875 C 9.296875 -23.21875 11.484375 -23.734375 13.921875 -23.734375 C 16.046875 -23.734375 17.960938 -23.351562 19.671875 -22.59375 C 21.378906 -21.84375 22.796875 -20.757812 23.921875 -19.34375 L 19.734375 -15.546875 C 18.234375 -17.367188 16.40625 -18.28125 14.25 -18.28125 C 12.988281 -18.28125 11.863281 -18 10.875 -17.4375 C 9.894531 -16.882812 9.132812 -16.101562 8.59375 -15.09375 C 8.050781 -14.09375 7.78125 -12.9375 7.78125 -11.625 C 7.78125 -10.320312 8.050781 -9.164062 8.59375 -8.15625 C 9.132812 -7.144531 9.894531 -6.363281 10.875 -5.8125 C 11.863281 -5.257812 12.988281 -4.984375 14.25 -4.984375 C 16.40625 -4.984375 18.234375 -5.890625 19.734375 -7.703125 L 23.921875 -3.921875 C 22.796875 -2.503906 21.378906 -1.414062 19.671875 -0.65625 C 17.960938 0.09375 16.046875 0.46875 13.921875 0.46875 Z M 13.921875 0.46875 "/></g></g></g><g fill="#39b54a" fill-opacity="1"><g transform="translate(160.091171, 240.929763)"><g><path d="M 14.0625 0.46875 C 11.601562 0.46875 9.390625 -0.0507812 7.421875 -1.09375 C 5.460938 -2.132812 3.921875 -3.570312 2.796875 -5.40625 C 1.679688 -7.25 1.125 -9.320312 1.125 -11.625 C 1.125 -13.9375 1.679688 -16.007812 2.796875 -17.84375 C 3.921875 -19.6875 5.460938 -21.128906 7.421875 -22.171875 C 9.390625 -23.210938 11.601562 -23.734375 14.0625 -23.734375 C 16.519531 -23.734375 18.726562 -23.210938 20.6875 -22.171875 C 22.644531 -21.128906 24.179688 -19.6875 25.296875 -17.84375 C 26.421875 -16.007812 26.984375 -13.9375 26.984375 -11.625 C 26.984375 -9.320312 26.421875 -7.25 25.296875 -5.40625 C 24.179688 -3.570312 22.644531 -2.132812 20.6875 -1.09375 C 18.726562 -0.0507812 16.519531 0.46875 14.0625 0.46875 Z M 14.0625 -4.984375 C 15.226562 -4.984375 16.285156 -5.257812 17.234375 -5.8125 C 18.191406 -6.363281 18.945312 -7.144531 19.5 -8.15625 C 20.0625 -9.164062 20.34375 -10.320312 20.34375 -11.625 C 20.34375 -12.9375 20.0625 -14.09375 19.5 -15.09375 C 18.945312 -16.101562 18.191406 -16.882812 17.234375 -17.4375 C 16.285156 -18 15.226562 -18.28125 14.0625 -18.28125 C 12.882812 -18.28125 11.816406 -18 10.859375 -17.4375 C 9.910156 -16.882812 9.160156 -16.101562 8.609375 -15.09375 C 8.054688 -14.09375 7.78125 -12.9375 7.78125 -11.625 C 7.78125 -10.320312 8.054688 -9.164062 8.609375 -8.15625 C 9.160156 -7.144531 9.910156 -6.363281 10.859375 -5.8125 C 11.816406 -5.257812 12.882812 -4.984375 14.0625 -4.984375 Z M 14.0625 -4.984375 "/></g></g></g><g fill="#39b54a" fill-opacity="1"><g transform="translate(185.372373, 240.929763)"><g><path d="M 2.328125 -23.265625 L 8.90625 -23.265625 L 8.90625 -5.21875 L 20 -5.21875 L 20 0 L 2.328125 0 Z M 2.328125 -23.265625 "/></g></g></g><g fill="#39b54a" fill-opacity="1"><g transform="translate(202.813013, 240.929763)"><g><path d="M 14.0625 0.46875 C 11.601562 0.46875 9.390625 -0.0507812 7.421875 -1.09375 C 5.460938 -2.132812 3.921875 -3.570312 2.796875 -5.40625 C 1.679688 -7.25 1.125 -9.320312 1.125 -11.625 C 1.125 -13.9375 1.679688 -16.007812 2.796875 -17.84375 C 3.921875 -19.6875 5.460938 -21.128906 7.421875 -22.171875 C 9.390625 -23.210938 11.601562 -23.734375 14.0625 -23.734375 C 16.519531 -23.734375 18.726562 -23.210938 20.6875 -22.171875 C 22.644531 -21.128906 24.179688 -19.6875 25.296875 -17.84375 C 26.421875 -16.007812 26.984375 -13.9375 26.984375 -11.625 C 26.984375 -9.320312 26.421875 -7.25 25.296875 -5.40625 C 24.179688 -3.570312 22.644531 -2.132812 20.6875 -1.09375 C 18.726562 -0.0507812 16.519531 0.46875 14.0625 0.46875 Z M 14.0625 -4.984375 C 15.226562 -4.984375 16.285156 -5.257812 17.234375 -5.8125 C 18.191406 -6.363281 18.945312 -7.144531 19.5 -8.15625 C 20.0625 -9.164062 20.34375 -10.320312 20.34375 -11.625 C 20.34375 -12.9375 20.0625 -14.09375 19.5 -15.09375 C 18.945312 -16.101562 18.191406 -16.882812 17.234375 -17.4375 C 16.285156 -18 15.226562 -18.28125 14.0625 -18.28125 C 12.882812 -18.28125 11.816406 -18 10.859375 -17.4375 C 9.910156 -16.882812 9.160156 -16.101562 8.609375 -15.09375 C 8.054688 -14.09375 7.78125 -12.9375 7.78125 -11.625 C 7.78125 -10.320312 8.054688 -9.164062 8.609375 -8.15625 C 9.160156 -7.144531 9.910156 -6.363281 10.859375 -5.8125 C 11.816406 -5.257812 12.882812 -4.984375 14.0625 -4.984375 Z M 14.0625 -4.984375 "/></g></g></g><g fill="#39b54a" fill-opacity="1"><g transform="translate(228.094212, 240.929763)"><g><path d="M 23.328125 0 L 23.265625 -12.328125 L 17.28125 -2.296875 L 14.359375 -2.296875 L 8.40625 -12 L 8.40625 0 L 2.328125 0 L 2.328125 -23.265625 L 7.75 -23.265625 L 15.921875 -9.84375 L 23.890625 -23.265625 L 29.3125 -23.265625 L 29.375 0 Z M 23.328125 0 "/></g></g></g><g fill="#39b54a" fill-opacity="1"><g transform="translate(256.963465, 240.929763)"><g><path d="M 20.203125 -12.125 C 21.535156 -11.664062 22.578125 -10.941406 23.328125 -9.953125 C 24.078125 -8.960938 24.453125 -7.769531 24.453125 -6.375 C 24.453125 -4.34375 23.632812 -2.769531 22 -1.65625 C 20.363281 -0.550781 17.992188 0 14.890625 0 L 2.328125 0 L 2.328125 -23.265625 L 14.21875 -23.265625 C 17.1875 -23.265625 19.445312 -22.710938 21 -21.609375 C 22.550781 -20.515625 23.328125 -19.039062 23.328125 -17.1875 C 23.328125 -16.070312 23.054688 -15.078125 22.515625 -14.203125 C 21.972656 -13.328125 21.203125 -12.632812 20.203125 -12.125 Z M 8.84375 -18.515625 L 8.84375 -14.03125 L 13.359375 -14.03125 C 15.578125 -14.03125 16.6875 -14.78125 16.6875 -16.28125 C 16.6875 -17.769531 15.578125 -18.515625 13.359375 -18.515625 Z M 14.359375 -4.75 C 16.660156 -4.75 17.8125 -5.535156 17.8125 -7.109375 C 17.8125 -8.679688 16.660156 -9.46875 14.359375 -9.46875 L 8.84375 -9.46875 L 8.84375 -4.75 Z M 14.359375 -4.75 "/></g></g></g><g fill="#39b54a" fill-opacity="1"><g transform="translate(279.686509, 240.929763)"><g><path d="M 14.0625 0.46875 C 11.601562 0.46875 9.390625 -0.0507812 7.421875 -1.09375 C 5.460938 -2.132812 3.921875 -3.570312 2.796875 -5.40625 C 1.679688 -7.25 1.125 -9.320312 1.125 -11.625 C 1.125 -13.9375 1.679688 -16.007812 2.796875 -17.84375 C 3.921875 -19.6875 5.460938 -21.128906 7.421875 -22.171875 C 9.390625 -23.210938 11.601562 -23.734375 14.0625 -23.734375 C 16.519531 -23.734375 18.726562 -23.210938 20.6875 -22.171875 C 22.644531 -21.128906 24.179688 -19.6875 25.296875 -17.84375 C 26.421875 -16.007812 26.984375 -13.9375 26.984375 -11.625 C 26.984375 -9.320312 26.421875 -7.25 25.296875 -5.40625 C 24.179688 -3.570312 22.644531 -2.132812 20.6875 -1.09375 C 18.726562 -0.0507812 16.519531 0.46875 14.0625 0.46875 Z M 14.0625 -4.984375 C 15.226562 -4.984375 16.285156 -5.257812 17.234375 -5.8125 C 18.191406 -6.363281 18.945312 -7.144531 19.5 -8.15625 C 20.0625 -9.164062 20.34375 -10.320312 20.34375 -11.625 C 20.34375 -12.9375 20.0625 -14.09375 19.5 -15.09375 C 18.945312 -16.101562 18.191406 -16.882812 17.234375 -17.4375 C 16.285156 -18 15.226562 -18.28125 14.0625 -18.28125 C 12.882812 -18.28125 11.816406 -18 10.859375 -17.4375 C 9.910156 -16.882812 9.160156 -16.101562 8.609375 -15.09375 C 8.054688 -14.09375 7.78125 -12.9375 7.78125 -11.625 C 7.78125 -10.320312 8.054688 -9.164062 8.609375 -8.15625 C 9.160156 -7.144531 9.910156 -6.363281 10.859375 -5.8125 C 11.816406 -5.257812 12.882812 -4.984375 14.0625 -4.984375 Z M 14.0625 -4.984375 "/></g></g></g></svg>